<?xml version="1.0" encoding="utf-8"?>
<!-- Generator: Adobe Illustrator 22.1.0, SVG Export Plug-In . SVG Version: 6.00 Build 0)  -->
<svg version="1.1" id="Layer_1" xmlns="http://www.w3.org/2000/svg" xmlns:xlink="http://www.w3.org/1999/xlink" x="0px" y="0px"
	 viewBox="0 0 500 500" style="enable-background:new 0 0 500 500;" xml:space="preserve">
<style type="text/css">
	.st0{fill:#66554B;}
</style>
<path class="st0" d="M489.4,259.4c-15.8-4.9-31.5-10.1-47.3-15c-1.8-0.5-3.8,1-3.6,2.8c0.2,3.5,0.3,9.9,0.5,13.4h-52.6
	c0.2-0.3,0.2-0.7,0.2-1c-0.2-0.8-0.5-1.5-1.3-1.8c-5.8-2.8-12-5.6-19-6.6c-3.3-0.5-6.6-0.5-9.6,0c0.5-0.7,0.8-1.3,1.3-2.1
	c7.9-1.5,13.5-8.9,15.2-15.8c2-8.6-0.7-17.5-2.8-23.3c-0.2-0.7-0.7-1.2-1.3-1.3c-0.7-0.2-1.3-0.2-1.8,0.2c-6.8,3.5-12.2,9.7-14.7,17
	c-2,5.9-2.1,12.4-0.3,18.3c-2.6,4.8-5.3,8.9-8.2,12.7c-0.5-8.6-4.3-16.8-10.4-22.8c-0.5-0.5-1.2-0.7-1.8-0.7
	c-0.7,0.2-1.3,0.5-1.6,1.2c-1.5,2.5-2.6,5.3-3.3,8.1c-1.5-3.5-3.5-6.8-5.9-9.7l-4-4.1l-1.2-1c-4-3.3-10.7-6.9-16.5-7.6V220
	c-5.3-9.6-13.9-16.2-24.3-18.5l-2-0.5c-0.3,0-6.3-0.8-11.5,0c-0.3,0-1.5,0.3-1.5,0.3c-10.1,2-18.5,7.8-23.9,16.3l0,0l0,0
	c-11.4-2.3-23.4,3.8-31.8,16.2l-1.5,2.1c0,0.2-0.5,0.7-1.2,1.8h-0.2c-0.2-0.2-0.3-0.3-0.5-0.3c-1.2-0.7-2.6-3.6-3.3-8.1
	c2-0.7,4.3-2.1,5.4-4c2.8-2,6.1-5.4,7.6-8.6c0.8-2,1-3.8,0.3-5.3c-0.8-2.1-2.3-2.8-3.3-3.1c-0.8-0.2-1.8-0.2-2.6,0
	c-0.5-3-2-6.3-5.4-6.4c-0.2,0-0.2,0-0.3,0c-3.1,0-6.6,2.5-8.4,4.1c-1.5-0.5-3.6-1-5.4-0.3c-1.3,0.5-2.3,1.3-3,2.6
	c-2,4.1-1.5,11.5,4.5,15.3c0.2,0.5,0.3,1,0.8,1.5c1.2,1.6,3.1,3.1,4.9,4c0.2,1.6,0.7,3.6,1.2,5.4c-5.4-2.6-11.5-6.1-16-9.9
	c1.5-1.8,1.2-4.1,0.8-6.3l-0.2-1.2c0-0.5-0.2-1-0.5-1.5c0.5-3.5,0-6.9-1.2-9.4c-1.3-2.8-3.1-3.6-4.3-3.8c-2.3-0.3-4,0.3-5.3,1.5
	c-0.5-0.5-1.2-1-2-1.3c-0.8-0.3-1.8-0.5-2.8-0.5c-2.1,0-4.3,0.8-5.8,1.5c-1.8,0.8-2.6,2.1-2.8,3.1c-0.5,1.3-0.2,2.8,0.2,3.8
	c-1.2,1.2-2.3,3.1-2.5,6.8c0,2.1,0.7,4,2,5.3c1,1.2,2.3,1.8,3.6,2.3c-0.3,1.3-0.2,3.1,1.8,5.4c1.2,1.3,2.8,2,4.6,1.8
	c2.5-0.2,4.9-1.8,7.1-3.6c1,0,2-0.3,3-0.8c2.8,2.5,6.1,4.8,9.7,6.9c-1.3,0.7-2.6,1.5-3.8,2.1c-1-0.8-2.3-1.3-3.5-1.5
	c-0.2,0-0.3,0-0.5,0c-0.2,0-0.3,0-0.5,0c-2-1-4.3-1.6-6.6-1.6h-0.2c-3.3,0-6.3,1.3-8.1,3.5c-3.3,4-1.6,8.6,0.3,11.5
	c-1.6,2-3,5.1-1.5,9.1c0.5,1.3,1.3,2.3,2.5,2.8c-44.4,0-75.9,0-75.9,0s-1-2.3-3.1-6.1c-4.8-11.7-18.1-19-29.2-23.6
	c-12.4-5.3-28.7-9.7-42.1-5.6c-1.8,0.7-2.6,2.6-1.6,4.3c3.1,6.3,7.9,12.2,13.9,17.5c2.1,1.8,6.8,5.4,8.1,6.3
	c7.8,5.3,16.7,9.4,25.4,12c-12.4,3.5-24.4,10.1-34,18.6c-2.1,1.8-4.6,4.3-6.1,6.1c-3,3.5-5.6,7.1-7.4,11.1c-0.8,1.6-0.2,3.6,1.6,4.3
	c13.4,4.1,29.5-0.3,42.1-5.6c11.9-5.1,26.4-13,30.2-26.4c0.5-1.5,2.5-6.8,2.5-6.8s50.2,0,112.7,0c1.5,3.8,4.1,7.3,7.9,9.4
	c-5.3,1.8-10.4,4.3-15.5,7.6c-1.6-1.5-3.3-3-5.3-4.3c-0.8-0.7-1.8-1.3-2.8-1.8c-8.9-5.1-20.1-5.9-29.7-2c-0.7,0.3-1.3,1-1.3,1.6
	c-0.2,0.8,0.2,1.5,0.7,2.1c4.8,4.5,9.9,8.9,16.2,11.7c3,1.5,6.1,2.3,9.1,2.8c-0.7,0.5-1.2,1.2-1.8,1.6c-7.9-0.8-15.5,4.5-19.1,10.9
	c-4.5,7.8-4.5,16.8-4.1,23.1c0,0.7,0.3,1.3,0.8,1.6s1.2,0.5,1.8,0.5c7.6-1.3,14.5-5.8,19-12c3.6-5.1,5.6-11.2,5.6-17.5
	c4-3.8,7.8-6.9,11.5-9.7c-2,8.2-0.7,17.3,3.5,24.7c0.3,0.7,1,1,1.6,1.2c0.7,0.2,1.3-0.2,2-0.5c5.1-4.6,8.6-10.9,9.9-17.7
	c1-5.4,0.7-11.1-1-16.3c1.6-0.7,3.5-1.2,5.1-1.6c-2,6.3-3.5,14.5-1.2,22.3l0.5,1.8l2.6,4.9l0.3,0.3c2.1,3,4.9,5.6,8.6,7.8
	c0,0,0.8,0.5,1.2,0.7c1.8,1,5.3,2,5.4,2.1c4.3,1,10.6,1.6,16.2,1.6c9.7,0,17-1.8,20.3-4.9l0,0l0,0c6.1,3.1,12,5.1,17.7,5.9l1.5,0.2
	l4.9,0.2h0.7c6.3-0.3,12-2.3,17-6.1c1.3-1,2.5-2,3.6-3.3l1-1l2.3-2.8l1.2-2c3.8-6.1,5.6-13.4,5.3-20.3c1,0.7,2,1.3,3,1.8
	c0.7,0.3,1.5,0.8,2.1,1.2c-3.8,7.3-4.6,13.2-2.5,17.3c2.5,4.9,7.6,5.6,7.9,5.6c0.2,0,0.2,0,0.3,0c0.3,0,0.8-0.2,1.2-0.3
	c2.3-1.2,3.8-3,4.5-5.4c1.2-4-0.2-9.1-1.6-13.2c1,0.3,2,0.7,3,1c0.3,5.1,4.5,11.7,8.6,15.8c2.5,2.5,5.9,5.3,9.6,5.3
	c0.5,0,1,0,1.3-0.2c1.8-0.3,3.3-1.5,4-3c0.2-0.5,0.3-1,0.5-1.5c1,0.3,2,0.7,3,0.7c3.1,0.2,4.9-1.5,5.3-1.6c0.2-0.2,0.5-0.5,0.5-0.8
	c1-2.1,0.7-4.1-1.2-6.3c1.5-0.7,2.6-1.5,3.5-2.6c1-1.5,1.2-3.3,0.5-5.1c-0.2-0.7-0.5-1.2-1-1.6c2.1-1.8,2.8-4.3,2.6-5.6
	c0-0.3-0.2-0.7-0.2-1c-1.2-2.3-3.3-3.3-6.8-3c-0.2-1.3-0.8-2.6-2-3.6c-2.5-2.1-6.4-2.5-11.5-0.8c-5.3,1.6-11.4,5.6-14.5,9.1
	c-2.1-0.7-4.1-1.3-6.3-2.1c3.8-0.5,7.6-1.8,10.2-4.1c2-1.8,3-4,3-6.6c0-0.5-0.2-1-0.3-1.3c-0.2-0.2-3-4.5-8.2-4.8
	c2.1-2,4.3-4,6.3-6.3c1.8,0,3.6,0,5.3,0c0.8,0.3,1.6,0.7,2.5,1c1,0.3,2.1,0.7,3.1,0.8c6.8,1.5,14.2,0.8,20.6-1.8
	c35.6,0,60.2,0,61.7,0c0.2,3.3,0.2,8.7,0.3,12c0,0.8,0.3,1.3,0.7,1.8c0.7,0.8,1.6,1.5,3,1c7.4-2.3,14.8-4.6,22.3-7.1
	c7.9-2.6,17.8-4.8,24.7-9.6C492.2,263.2,491.9,260.2,489.4,259.4z M168.6,217.5c0,0.5-0.3,1.3-0.7,2c-0.7,1.6-1.3,3.5-1.2,5.3
	c-1.5,1.3-3,2.3-4.1,2.3c-0.3,0-0.3,0-0.5-0.2c-0.7-0.8-0.7-1.2-0.7-1.2c0-0.2,0.3-0.3,0.5-0.5c1-0.5,1.6-1.6,1.5-2.8
	c-0.2-1.2-1.3-2-2.5-2c-0.7,0-3.3-0.3-4.5-1.5c-0.3-0.3-0.7-0.8-0.7-1.6c0-2.3,0.7-3.1,1-3.3c0.8,0,1.5-0.5,2-1.3
	c0.5-0.8,0.3-1.8-0.2-2.5c-0.3-0.7-0.8-1.8-0.7-2.1c1.2-0.5,3.5-1.5,4.6-1c0.7,0.3,1.2,1.2,1.3,2c0.3,1,1.3,1.6,2.3,1.6
	c0,0,0,0,0.2,0c1,0,1.8-0.7,2.3-1.5c0.2-0.2,1-2,2.5-1.8c0.2,0,0.7,0.7,1.2,2.3c0.3,1,0.5,2.3,0.5,3.6
	C170.7,213.7,168.9,215.4,168.6,217.5z M15.8,230c10.7-2,22.6,1.6,32.5,5.3c11.2,4.1,26.2,11.9,29.4,24.4c0,0,0,0,0,0.2
	c-0.3,0.7-0.5,1.5-0.7,2.3C55.1,263,27.4,248.8,15.8,230z M77.8,270.8c-3.6,12.2-18.5,20-29.7,24.4c-9.7,3.8-21.8,7.3-32.5,5.3
	c11.7-19.1,40.1-33.3,62-32.2c0.2,0.3,0.3,0.7,0.5,0.8C78.3,270,78.2,270.3,77.8,270.8z M193.5,219.3c-1.2-0.7-2.3-1.3-3.5-1.3
	c-0.3,0-0.8,0-1.3,0.2c-0.2,0-0.3,0.2-0.5,0.3c-2.5-2.5-2.3-6.3-1.5-8.1c0.3-0.2,2,0.2,3.3,0.8c1,0.5,2.1,0.3,3-0.5
	c1.6-1.6,4.6-4,5.9-4l0,0c0.7,0.5,1.2,3.1,1.2,5.4c0,1,0.5,1.8,1.5,2.3c0.3,0.2,0.7,0.2,1.2,0.2c0.5,0,1.2-0.2,1.5-0.5
	c0.5-0.5,1.5-0.8,1.8-1v0.2c0,0.2,0,0.7-0.3,1.5c-0.8,1.8-2.6,3.8-4.3,5.3c-1-0.3-2.1-0.2-3.3,0c-0.8,0.2-2.5,0.3-3,0
	C194.6,220,194,219.6,193.5,219.3z M165.9,260.6c1-0.3,2-1,2.8-1.5c0,0,0,0,0,0.2c0.3,0.5,0.8,1,1.5,1.5
	C168.7,260.6,167.3,260.6,165.9,260.6z M175,256.3c-0.7,0.7-1,0.5-1.2,0.5c-0.5-0.2-1.6-0.3-1.3-1.8c0.2-1.2-0.3-2.1-1.3-2.6
	c-1-0.5-2.1-0.3-3,0.5c-1.8,1.8-4.3,3.5-4.9,3.3c0,0,0,0-0.2-0.3c-1.2-2.8,0.8-4.3,1.5-4.8c0.7-0.3,1.2-1,1.3-1.8
	c0.2-0.8-0.2-1.5-0.7-2.1c0,0-4-4.1-1.8-6.9c1.2-1.5,3-1.6,4.5-1.8c1.3,0,2.6,0.3,3.8,0.8c0,0.8,0.2,1.6,0.3,2.6l0.3,1.6
	c0.5,3.1,2.5,5.8,4.6,6.9C176.8,253.1,176,255.3,175,256.3z M196.3,258.6c0,0.7,0,1.3,0.2,2c-6.4,0-12.7,0-18.8,0
	c0.3-0.3,0.7-0.5,1-0.8c2-2.1,3.1-5.8,3.1-9.4c0.3-0.5,0.5-1.3,0.5-2c0-0.5,0-1.2-0.2-1.8c-0.2-1.6-0.2-3.8-0.5-5.4
	c2.8-2,6.3-3.6,8.1-2.8l0,0c3.5,1.6,6.6,3,9.4,4C197.6,246,196.1,251.6,196.3,258.6z M344.4,296.4l0.3-1.3c0-0.2,0-0.3,0-0.5
	c2.1-2.3,7.6-6.1,13-7.8c1.3-0.3,2.6-0.7,3.6-0.7c1,0,1.8,0.2,2.3,0.7c0.3,0.2,0.7,0.7-0.3,1.8c-0.7,0.8-0.8,2.1-0.2,3
	c0.7,1,1.8,1.3,2.8,1c2.5-0.8,4-1,4.6-0.8c-0.3,0.7-1.2,1.5-3.1,2c-1,0.3-1.8,1.2-1.8,2.3c0,1.2,0.7,2.1,1.6,2.5
	c1.2,0.3,2,0.8,2.1,1.3c0.2,0.5,0,0.5,0,0.7c-0.3,0.5-1.6,1.5-4.9,1.5c-1.2,0-2,0.8-2.3,1.8c-0.3,1,0.2,2.1,1.2,2.8
	c2.1,1.3,3.1,2.3,3.5,3c-0.2,0-0.5,0-0.8,0c-1.5-0.2-3.3-1.3-5.1-3.3c-0.8-1-2.1-1.2-3.3-0.5c-1,0.7-1.3,2.1-0.8,3.1
	c1,2,1.2,3.6,1,4.1c0,0-0.2,0.2-0.5,0.3l0,0c-1,0.2-3.5-0.7-6.4-3.8c-3.8-3.8-6.8-9.2-7.3-12.5C344.1,297.2,344.4,296.8,344.4,296.4
	z M301,227.4h0.2c10.1,3.6,17.7,11.2,20.5,21c3,9.9,0.8,20.3-5.6,28.9h-0.3c-0.3,0-0.7,0-1,0.2l0,0l0,0c1-9.2-2.3-18-9.2-24.7l0,0
	l0,0c2.5-8.6,0.5-17.8-5.1-24.1l-0.2-0.2L301,227.4z M253.2,284.1L253.2,284.1L253.2,284.1c-6.6,2.6-13,1.3-17.3-3.5
	c-3.6-4-4.1-10.4-1.3-15c1.5-2.5,3.8-4.1,6.6-4.6l0,0l0,0c0.8,1.6,1.6,3.1,2.6,4.3l0.2,0.2l0,0C243.5,273.9,246.9,280.7,253.2,284.1
	z M271.2,244.9H271c-1-0.5-1.6-0.7-2.5-1c-1.8-0.7-3.6-0.8-5.4-0.8c-6.6,0-12.7,4.3-16.3,11.7l0,0h-0.2c-0.2,0-0.3,0-0.7,0h-0.3l0,0
	c-2-6.9-0.2-13.2,5.1-17.3c3.6-2.8,8.9-3.6,13.4-2c4,1.5,6.8,4.6,7.6,8.9v0.2L271.2,244.9z M275.8,265.7
	c-2.1,8.4-10.9,12.9-18.6,12.9h-0.3h-0.2l0,0l0,0c-6.1-3.3-7.3-11.2-5.6-17.5c1.8-6.9,6.4-11.5,11.9-11.5c1.2,0,2.5,0.2,3.8,0.7
	C273.5,252.5,277.5,259.2,275.8,265.7z M251.9,291.2c4.6-1,9.1-3.3,12.5-6.4c0.3-0.2,0.3-0.5,0.7-0.8l0,0c2.3-0.7,4.6-1.6,6.6-2.8
	l0,0l0,0c0.3,0.3,0.8,0.5,1.2,0.7c4.6,1.3,10.1,0.8,14.7-1.3h0.2v0.2c-2.8,5.8-7.3,10.2-12.9,13.2c-2.3,1.2-8.2,2.8-13.7,3
	C255.5,296.5,252.4,294.7,251.9,291.2L251.9,291.2L251.9,291.2z M277,249.2L277,249.2l0.3-0.2l0,0c4.5-0.3,9.1,1.5,12.2,4.6
	c2.5,2.5,3.8,5.6,3.8,8.9c-0.2,8.1-7.8,13.4-14.8,13.4c-0.2,0-0.5,0-0.7,0h-0.2l0,0c2.3-2.8,3.8-5.9,4.6-9.2
	C283.7,260.4,281.7,254,277,249.2z M279.9,298.2c6.9-4.3,12.4-11.1,15.3-19c0.5-1.2-0.2-3-0.7-4c2.3-2.6,4.9-6.8,5.1-12.4
	c0.8-1,2.1-2.6,2.3-3.1c0-0.2,0.2-0.2,0.3-0.5l0.2-0.3l0,0c6.3,7.4,7.4,17,3.5,25.6s-12.2,13.9-21.6,13.9
	C283.1,298.7,281.6,298.5,279.9,298.2L279.9,298.2L279.9,298.2z M297.9,254L297.9,254L297.9,254c-3.6-6.9-11.5-11.7-19.6-11.7h-0.7
	l0,0c-1.2-4.6-4-8.6-7.9-11.4l0,0l0,0c3.5-2.6,7.8-4.1,12.2-4.1c5.3,0,9.9,2,13.2,5.4C300.5,238,301.5,246.5,297.9,254z
	 M241.7,220.8l0.3-0.3c5.6-8.4,15-13.4,25.1-13.4c10.9,0,20.6,5.8,25.9,15.5v0.2h-0.2c-3.3-1.5-6.8-2.3-10.6-2.3
	c-6.4,0-12.7,2.3-17.7,6.4c-0.2,0.2-1,0.8-1.5,1.3c-1.2-0.3-2.5-0.3-3.8-0.3c-1,0-2,0-3,0.2l0,0l0,0c-4.3-2.5-9.2-3.6-14.2-3.3h-0.8
	L241.7,220.8z M244,230.7c1.2,0,2.5,0.2,3.6,0.3h0.2h-0.2c-7.4,5.1-10.7,14.2-8.6,23.9l0,0l0,0c-4.6,1.3-8.7,4.6-11.1,8.9
	c-2.3,4.1-2.6,9.1-1.3,13.7v0.2h-0.2c-7.4-4.9-6.8-22.6-3.8-30.7C226.1,237.6,235.1,230.7,244,230.7z M207.3,240.6
	c6.4-11.4,15.8-17.5,25.2-16.7l0,0l-0.5,1c-0.2,0.5-0.7,1.8-0.8,2.5l0,0c-6.1,3.3-11.1,8.6-13.9,15.2c-3,6.8-4.3,19.6-1.6,29.5l0,0
	l0,0c-4.9-0.2-8.7-2.3-10.7-6.1C201.1,259.1,203.2,247.7,207.3,240.6z M241.5,317.6c-4.6-0.2-13.2-1.2-19.1-6.9
	c-7.6-7.1-8.4-17.3-2.6-30.5l0,0l0,0c2.3,3,5.3,4.8,8.7,5.3l0,0l0,0c-0.3,12.2,6.1,22.9,16.5,27.5c3.3,1.5,6.8,2.3,10.6,2.3v0.3
	C249.6,317,242,317.6,241.5,317.6z M257.5,308.9c-11.5,0-21.4-8.9-22.6-20.1v-0.2h0.2c3.1,2,6.8,3.1,10.6,3.1l0,0
	c1.5,7.8,10.4,11.2,18.1,11.2c1.2,0,2.5-0.2,3.6-0.3c1.6-0.3,3.5-0.7,5.4-1.3l0,0l0,0c0,0.2,0,0.2,0.2,0.3v0.2l0,0
	C268.7,306.4,263.4,308.9,257.5,308.9z M305.2,312.5c-8.9,7.9-21.6,7.9-36.3,0.3h-0.2h0.2c4-1.8,7.6-4.6,10.4-7.9l0,0l0,0
	c1.8,0.3,3.6,0.5,5.4,0.5c12.2,0,23.1-7.6,27.9-19.1l0,0l0,0c0.3,0.3,0.8,0.7,1.5,0.8l0,0C315.7,296.5,312.3,306.1,305.2,312.5z
	 M322.8,283c0.5-0.2,0.8-0.3,1.3-0.5c-0.2,0.3-0.5,0.5-0.7,0.8C323.1,283.3,323,283.2,322.8,283z M332.9,308.4
	c-0.2,0.8-0.7,1.5-1.3,2c-1-0.3-2.5-1-3.3-2.6c-1.3-2.5-0.5-6.6,1.8-11.7C331.9,299.8,333.9,305.1,332.9,308.4z M341.6,281.8
	c-2.8,2.5-8.7,3.1-13.2,3.3c3.8-4.8,7.3-7.3,10.2-7.4l0,0c2,0,3.5,1.2,4.1,2C342.8,280.5,342.3,281.2,341.6,281.8z M331.2,269.6
	c-1.6,1.2-3.1,2.3-4.8,3.3c0.8-2.1,1.6-4.3,2.1-6.4c0.3,0,0.5,0,0.8,0C329.9,267.6,330.4,268.6,331.2,269.6z"/>
</svg>
